<svg width="150" height="150" viewBox="0 0 150 150" fill="none" xmlns="http://www.w3.org/2000/svg">
<path fill-rule="evenodd" clip-rule="evenodd" d="M143.523 100.034V92.9706H137.196V93.8996C139.585 95.6345 141.717 97.7021 143.523 100.034Z" fill="#948E8C"/>
<path fill-rule="evenodd" clip-rule="evenodd" d="M89.5972 19.9497L93.3203 11.8342C93.876 10.6232 94.7675 9.59706 95.8891 8.87769C97.0107 8.15835 98.315 7.77597 99.6475 7.77594H136.564C140.408 7.77594 143.525 10.8925 143.525 14.7369V100.036C137.854 92.7139 128.978 88 119 88C104.668 88 92.608 97.7255 89.059 110.937H19.4938C15.6494 110.937 12.5328 107.82 12.5328 103.976V30.9688C12.5328 27.1245 15.6494 24.0079 19.4938 24.0079H83.27C84.6025 24.0079 85.9069 23.6255 87.0285 22.9061C88.15 22.1868 89.0416 21.1607 89.5972 19.9497Z" fill="#948E8C"/>
<path fill-rule="evenodd" clip-rule="evenodd" d="M93.0556 135.974C89.859 131.098 88 125.266 88 119C88 101.879 101.879 88 119 88C125.799 88 132.087 90.1887 137.197 93.9V58.9378C137.197 55.0934 134.08 51.9769 130.236 51.9769H66.4594C65.1269 51.9769 63.8225 51.5944 62.701 50.875C61.5794 50.1556 60.6878 49.1297 60.1322 47.9184L56.4091 39.8031C55.8535 38.5919 54.9619 37.5659 53.8403 36.8466C52.7188 36.1272 51.4144 35.7447 50.0819 35.7447H13.166C9.32161 35.7447 6.20502 38.8616 6.20502 42.7056V129.013C6.20502 132.857 9.32161 135.974 13.166 135.974H93.0556Z" fill="#566885"/>
<path fill-rule="evenodd" clip-rule="evenodd" d="M119 144C132.807 144 144 132.807 144 119C144 105.193 132.807 94 119 94C105.193 94 94 105.193 94 119C94 132.807 105.193 144 119 144ZM116 104C116 102.343 117.343 101 119 101C120.657 101 122 102.343 122 104V115.5H133.5C135.157 115.5 136.5 116.843 136.5 118.5C136.5 120.157 135.157 121.5 133.5 121.5H122V133C122 134.657 120.657 136 119 136C117.343 136 116 134.657 116 133V121.5H104.5C102.843 121.5 101.5 120.157 101.5 118.5C101.5 116.843 102.843 115.5 104.5 115.5H116V104Z" fill="#948E8C"/>
</svg>
