<svg width="150" height="150" viewBox="0 0 150 150" fill="none" xmlns="http://www.w3.org/2000/svg">
<path fill-rule="evenodd" clip-rule="evenodd" d="M125 88.5802C123.059 88.1995 121.053 88 119 88C101.879 88 88 101.879 88 119C88 127.411 91.3499 135.04 96.7883 140.625H34.375C29.1973 140.625 25 136.428 25 131.25V18.75C25 13.5723 29.1973 9.375 34.375 9.375H89.8669C92.3531 9.375 94.7378 10.3627 96.4959 12.1209L122.254 37.8791C124.012 39.6372 125 42.0219 125 44.5081V88.5802Z" fill="#566885"/>
<path d="M114.978 38.4153C116.947 40.3841 115.552 43.75 112.768 43.75H93.75C92.0241 43.75 90.625 42.3509 90.625 40.625V21.6069C90.625 18.8228 93.9909 17.4286 95.9597 19.3972L114.978 38.4153Z" fill="#948E8C"/>
<path fill-rule="evenodd" clip-rule="evenodd" d="M119 144C132.807 144 144 132.807 144 119C144 105.193 132.807 94 119 94C105.193 94 94 105.193 94 119C94 132.807 105.193 144 119 144ZM116 104C116 102.343 117.343 101 119 101C120.657 101 122 102.343 122 104V115.5H133.5C135.157 115.5 136.5 116.843 136.5 118.5C136.5 120.157 135.157 121.5 133.5 121.5H122V133C122 134.657 120.657 136 119 136C117.343 136 116 134.657 116 133V121.5H104.5C102.843 121.5 101.5 120.157 101.5 118.5C101.5 116.843 102.843 115.5 104.5 115.5H116V104Z" fill="#948E8C"/>
</svg>
