<svg width="150" height="150" viewBox="0 0 150 150" fill="none" xmlns="http://www.w3.org/2000/svg">
<g clip-path="url(#clip0_316_227)">
<path fill-rule="evenodd" clip-rule="evenodd" d="M74 44H99V49H111V56H118V60H123V66H129V73H135V81H137C138.657 81 140 82.3431 140 84V92H141C143.761 92 146 94.2386 146 97V105C146.628 105.835 147 106.874 147 108V116C147 118.761 144.761 121 142 121C139.239 121 137 118.761 137 116V110H136C133.239 110 131 107.761 131 105V99H127C125.343 99 124 97.6569 124 96V92H118V89H112V84H105V82H99V77H89V74H74V44Z" fill="#948E8C"/>
<path d="M74.2268 37.967V16.2371C74.2268 15.099 73.6021 14.0536 72.6031 13.5155C71.601 12.9773 70.3856 13.0268 69.433 13.6546L1.39175 58.5C0.52268 59.0722 0 60.0433 0 61.0825C0 62.1217 0.52268 63.0928 1.38866 63.665L69.4299 108.51C69.9464 108.851 70.5371 109.021 71.134 109.021C71.6381 109.021 72.1423 108.897 72.6031 108.649C73.6021 108.111 74.2268 107.066 74.2268 105.928V78.2227C106.976 79.5835 134.598 102.281 141.974 134.453C142.296 135.857 143.548 136.853 144.99 136.853C146.431 136.853 147.68 135.857 148.005 134.453C149.332 128.688 150.003 122.731 150.003 116.749C150 74.3041 116.282 39.5969 74.2268 37.967ZM68.0412 100.185L8.71237 61.0825L68.0412 21.9804V40.9794V75V100.185ZM143.749 119.87C131.994 91.9825 105.213 73.1443 74.2268 71.966V44.1371C112.871 45.7639 143.814 77.7124 143.814 116.753C143.814 117.795 143.793 118.834 143.749 119.87Z" fill="#566885"/>
<path d="M70 20L7 60.7389L70 102V20Z" fill="#566885" stroke="#566885"/>
</g>
<defs>
<clipPath id="clip0_316_227">
<rect width="150" height="150" fill="white"/>
</clipPath>
</defs>
</svg>
