<svg width="512" height="512" viewBox="0 0 512 512" fill="none" xmlns="http://www.w3.org/2000/svg">
<g clip-path="url(#clip0_322_246)">
<path d="M256 512C397.385 512 512 397.385 512 256C512 114.615 397.385 0 256 0C114.615 0 0 114.615 0 256C0 397.385 114.615 512 256 512Z" fill="#566885"/>
<path d="M376 404C376 412.8 368.8 420 360 420H152C143.2 420 136 412.8 136 404V116C136 107.2 143.2 100 152 100H360C368.8 100 376 107.2 376 116V404Z" fill="#263740"/>
<path d="M152 412C147.584 412 144 408.416 144 404V116C144 111.588 147.584 108 152 108H360C364.416 108 368 111.588 368 116V404C368 408.416 364.416 412 360 412H152Z" fill="#948E8C"/>
<path d="M356 125.332C358.209 125.332 360 123.541 360 121.332C360 119.123 358.209 117.332 356 117.332C353.791 117.332 352 119.123 352 121.332C352 123.541 353.791 125.332 356 125.332Z" fill="#D4D4D4"/>
<path d="M156 125.332C158.209 125.332 160 123.541 160 121.332C160 119.123 158.209 117.332 156 117.332C153.791 117.332 152 119.123 152 121.332C152 123.541 153.791 125.332 156 125.332Z" fill="#D4D4D4"/>
<path d="M356 405.32C358.209 405.32 360 403.529 360 401.32C360 399.111 358.209 397.32 356 397.32C353.791 397.32 352 399.111 352 401.32C352 403.529 353.791 405.32 356 405.32Z" fill="#D4D4D4"/>
<path d="M156 405.32C158.209 405.32 160 403.529 160 401.32C160 399.111 158.209 397.32 156 397.32C153.791 397.32 152 399.111 152 401.32C152 403.529 153.791 405.32 156 405.32Z" fill="#D4D4D4"/>
<path d="M256 326C306.81 326 348 284.81 348 234C348 183.19 306.81 142 256 142C205.19 142 164 183.19 164 234C164 284.81 205.19 326 256 326Z" fill="#D4D4D4"/>
<path d="M256 274C278.091 274 296 256.091 296 234C296 211.909 278.091 194 256 194C233.909 194 216 211.909 216 234C216 256.091 233.909 274 256 274Z" fill="#263740"/>
<path d="M256 270C236.148 270 220 253.848 220 234C220 214.152 236.148 198 256 198C275.852 198 292 214.152 292 234C292 253.848 275.852 270 256 270Z" fill="#948E8C"/>
<path d="M256 246C262.627 246 268 240.627 268 234C268 227.373 262.627 222 256 222C249.373 222 244 227.373 244 234C244 240.627 249.373 246 256 246Z" fill="#263740"/>
<path d="M256 214C258.209 214 260 212.209 260 210C260 207.791 258.209 206 256 206C253.791 206 252 207.791 252 210C252 212.209 253.791 214 256 214Z" fill="#263740"/>
<path d="M256 266C258.209 266 260 264.209 260 262C260 259.791 258.209 258 256 258C253.791 258 252 259.791 252 262C252 264.209 253.791 266 256 266Z" fill="#263740"/>
<path d="M230 240C232.209 240 234 238.209 234 236C234 233.791 232.209 232 230 232C227.791 232 226 233.791 226 236C226 238.209 227.791 240 230 240Z" fill="#263740"/>
<path d="M282 240C284.209 240 286 238.209 286 236C286 233.791 284.209 232 282 232C279.791 232 278 233.791 278 236C278 238.209 279.791 240 282 240Z" fill="#263740"/>
<path d="M237.6 221.6C239.809 221.6 241.6 219.809 241.6 217.6C241.6 215.391 239.809 213.6 237.6 213.6C235.391 213.6 233.6 215.391 233.6 217.6C233.6 219.809 235.391 221.6 237.6 221.6Z" fill="#263740"/>
<path d="M274.4 258.4C276.609 258.4 278.4 256.609 278.4 254.4C278.4 252.191 276.609 250.4 274.4 250.4C272.191 250.4 270.4 252.191 270.4 254.4C270.4 256.609 272.191 258.4 274.4 258.4Z" fill="#263740"/>
<path d="M237.6 258.4C239.809 258.4 241.6 256.609 241.6 254.4C241.6 252.191 239.809 250.4 237.6 250.4C235.391 250.4 233.6 252.191 233.6 254.4C233.6 256.609 235.391 258.4 237.6 258.4Z" fill="#263740"/>
<path d="M274.4 221.6C276.609 221.6 278.4 219.809 278.4 217.6C278.4 215.391 276.609 213.6 274.4 213.6C272.191 213.6 270.4 215.391 270.4 217.6C270.4 219.809 272.191 221.6 274.4 221.6Z" fill="#263740"/>
<path d="M256 354C221.256 354 189.928 339.144 168 315.472V372C168 380.8 175.2 388 184 388H256V354Z" fill="#D4D4D4"/>
<path d="M205.536 376.548C199.08 382.572 188.952 382.22 182.924 375.76C176.9 369.296 177.252 359.172 183.72 353.148C190.176 347.124 264.844 299.388 264.844 299.388C264.844 299.388 212 370.52 205.536 376.548Z" fill="#566885"/>
<path d="M271.9 292.1C274.236 294.428 273.604 298.888 270.484 302L262 310.484C258.892 313.592 254.428 314.236 252.1 311.9C249.764 309.572 250.404 305.112 253.516 302L262 293.512C265.108 290.408 269.572 289.764 271.9 292.1Z" fill="#263740"/>
</g>
<defs>
<clipPath id="clip0_322_246">
<rect width="512" height="512" fill="white"/>
</clipPath>
</defs>
</svg>
